<svg width="32" height="32" viewBox="0 0 32 32" fill="none" xmlns="http://www.w3.org/2000/svg">
<path d="M16 4C13.6267 4 11.3065 4.70374 9.33316 6.0224C7.35977 7.34093 5.8217 9.21507 4.91345 11.4077C4.0052 13.6005 3.76756 16.0133 4.23058 18.3411C4.6936 20.6689 5.83649 22.807 7.51472 24.4853C9.19296 26.1635 11.3311 27.3064 13.6589 27.7694C15.9867 28.2324 18.3995 27.9948 20.5923 27.0865C22.7849 26.1783 24.6591 24.6402 25.9776 22.6668C27.2963 20.6935 28 18.3733 28 16C28 12.8173 26.7357 9.7652 24.4853 7.51467C22.2348 5.26427 19.1827 4 16 4ZM16 26C14.0221 26 12.0888 25.4135 10.4443 24.3147C8.79981 23.2159 7.51808 21.6541 6.76121 19.8268C6.00433 17.9996 5.80631 15.9889 6.19215 14.0491C6.578 12.1093 7.53041 10.3275 8.92893 8.92893C10.3275 7.5304 12.1093 6.578 14.0491 6.19213C15.9889 5.80627 17.9996 6.00427 19.8268 6.7612C21.6541 7.51813 23.2159 8.79987 24.3147 10.4443C25.4135 12.0888 26 14.0221 26 16C26 18.6521 24.9464 21.1957 23.0711 23.0711C21.1957 24.9464 18.6521 26 16 26Z" fill="white"/>
<path d="M16 14.6667C15.7359 14.6702 15.4835 14.7766 15.2967 14.9634C15.1099 15.1502 15.0035 15.4026 15 15.6667V20.3334C15 20.5986 15.1053 20.8529 15.2929 21.0405C15.4804 21.228 15.7348 21.3334 16 21.3334C16.2652 21.3334 16.5196 21.228 16.7071 21.0405C16.8947 20.8529 17 20.5986 17 20.3334V15.6667C16.9965 15.4026 16.8901 15.1502 16.7033 14.9634C16.5165 14.7766 16.2641 14.6702 16 14.6667Z" fill="white"/>
<path d="M16 10.6667C15.7359 10.6702 15.4835 10.7766 15.2967 10.9634C15.1099 11.1502 15.0035 11.4026 15 11.6667V12.3334C15 12.5986 15.1053 12.853 15.2929 13.0404C15.4804 13.228 15.7348 13.3334 16 13.3334C16.2652 13.3334 16.5196 13.228 16.7071 13.0404C16.8947 12.853 17 12.5986 17 12.3334V11.6667C16.9965 11.4026 16.8901 11.1502 16.7033 10.9634C16.5165 10.7766 16.2641 10.6702 16 10.6667Z" fill="white"/>
</svg>
